<?xml version="1.0" encoding="utf-8"?>
<!-- Generator: Adobe Illustrator 17.1.0, SVG Export Plug-In . SVG Version: 6.00 Build 0)  -->
<!DOCTYPE svg PUBLIC "-//W3C//DTD SVG 1.1//EN" "http://www.w3.org/Graphics/SVG/1.1/DTD/svg11.dtd">
<svg version="1.1" id="Layer_1" xmlns="http://www.w3.org/2000/svg" xmlns:xlink="http://www.w3.org/1999/xlink" x="0px" y="0px"
	 viewBox="0 0 612 792" enable-background="new 0 0 612 792" xml:space="preserve">
<path fill="#FFFFFF" d="M176.3,520.3c13.6-8.3,22-35.5,13.7-43.8l-75.2-46.5h264.3c11.7,0,21.3-21.2,21.3-32.9
	c0-11.7-9.5-35-21.3-35H115.1l75.1-74.1c8.2-8.4,3.9-38.7-10.8-48c-16.8-8.2-40.8,2.4-57.5,18L6.2,382c-4,4-6.2,9.4-6.2,15
	s2.2,11,6.2,15l110.4,101.8C132.7,530,159.6,537,176.3,520.3z"/>
<path fill="#FFFFFF" d="M160.5,767.8h430.2c11.7,0,21.3-9.5,21.3-21.3V45.4c0-11.7-9.5-21.3-21.3-21.3H160.5
	c-11.7,0-21.3,9.5-21.3,21.3V136c0,11.7,20.1,13.8,31.9,13.8c11.7,0,35-2.1,35-13.8V92h339v609h-339v-72.5c0-11.7-22.2-26.5-34-26.5
	c-11.7,0-32.9,14.8-32.9,26.5v118.1C139.3,758.3,148.8,767.8,160.5,767.8z"/>
</svg>
